<svg xmlns="http://www.w3.org/2000/svg" viewBox="0 0 1212 719"><g transform="translate(-400 -4726)"><g transform="translate(234.212 4240.355)"><path d="M444.429,766.745h0c0-142.864,115.815-258.679,258.679-258.679h0A258.678,258.678,0,0,1,961.785,766.745h0c0,142.864-115.813,258.679-258.677,258.679h0C560.244,1025.424,444.429,909.609,444.429,766.745Zm83.124,0h0a175.554,175.554,0,1,0,351.109,0h0A175.554,175.554,0,0,0,703.108,591.19h0A175.556,175.556,0,0,0,527.553,766.745Z" transform="translate(23.5 21.076)" fill="rgba(0,0,0,0.11)" fill-rule="evenodd"/><path d="M701.245,506.81l-55.6,77.049" transform="translate(212.642 19.895)" fill="rgba(0,0,0,0)" fill-rule="evenodd"/><path d="M692.639,512.956l-47,65.126" transform="translate(212.642 25.673)" fill="none" stroke="#3d4c19" stroke-linejoin="round" stroke-width="2"/><path d="M678.62,508.206a6.382,6.382,0,1,1-8.91,1.44A6.383,6.383,0,0,1,678.62,508.206Z" transform="translate(234.132 20.072)" fill="#3d4c19"/><path d="M479.858,506.81l55.6,77.049" transform="translate(56.804 19.895)" fill="rgba(0,0,0,0)" fill-rule="evenodd"/><path d="M484.294,512.956l47,65.126" transform="translate(60.974 25.673)" fill="none" stroke="#7e9645" stroke-linejoin="round" stroke-width="2"/><path d="M481.726,508.206a6.382,6.382,0,1,1-1.44,8.91A6.381,6.381,0,0,1,481.726,508.206Z" transform="translate(56.071 20.072)" fill="#7e9645"/><path d="M778.9,707.892l-90.065-31.224" transform="translate(253.245 179.563)" fill="rgba(0,0,0,0)" fill-rule="evenodd"/><path d="M765.007,703.075l-76.171-26.407" transform="translate(253.245 179.563)" fill="none" stroke="#698137" stroke-linejoin="round" stroke-width="2"/><path d="M740.331,696.541a6.383,6.383,0,1,1-3.94-8.121A6.382,6.382,0,0,1,740.331,696.541Z" transform="translate(289.982 190.278)" fill="#698137"/><path d="M419.429,706.241l91.716-29.573" transform="translate(0 179.563)" fill="rgba(0,0,0,0)" fill-rule="evenodd"/><path d="M426.643,701.729l77.721-25.061" transform="translate(6.781 179.563)" fill="none" stroke="#698137" stroke-linejoin="round" stroke-width="2"/><path d="M420.531,695.649a6.382,6.382,0,1,1,8.034,4.115A6.381,6.381,0,0,1,420.531,695.649Z" transform="translate(0.745 189.563)" fill="#698137"/><path d="M577.332,857.157v-99.72" transform="translate(148.43 255.487)" fill="rgba(0,0,0,0)" fill-rule="evenodd"/><path d="M577.332,842.452V757.437" transform="translate(148.43 255.487)" fill="none" stroke="#3d4c19" stroke-linejoin="round" stroke-width="2"/><path d="M580.425,814.024a6.383,6.383,0,1,1,6.383-6.383A6.383,6.383,0,0,1,580.425,814.024Z" transform="translate(145.338 296.68)" fill="#3d4c19"/><g transform="translate(727.095 514.931)"><path d="M578.225,500.741h0A274.041,274.041,0,0,1,843.7,711.477l-47.5,11.277h0A225.219,225.219,0,0,0,578.019,549.559Z" transform="translate(-578.019 -500.741)" fill="#3d4c19" fill-rule="evenodd"/></g><g transform="translate(860.816 723.473)"><path d="M675.7,894.052h0A273.963,273.963,0,0,0,779.527,608.236l-47.146,11.531a225.427,225.427,0,0,1-85.434,235.182Z" transform="translate(-646.947 -608.236)" fill="#698137" fill-rule="evenodd"/></g><path d="M740.979,657.391,675.05,623.845l99.474-32.383Z" transform="translate(240.286 99.469)" fill="#3d4c19" fill-rule="evenodd"/><g transform="translate(461.448 514.122)"><path d="M710.668,500.375h0A274.646,274.646,0,0,0,441.088,700.4l46.766,13.192h0A226.049,226.049,0,0,1,709.737,548.956Z" transform="translate(-441.088 -500.324)" fill="#7e9645" fill-rule="evenodd"/></g><g transform="translate(449.565 694.838)"><path d="M546.291,908.233h0a273.968,273.968,0,0,1-94.566-314.757l48.029,17.609a222.812,222.812,0,0,0,76.91,255.984Z" transform="translate(-434.963 -593.476)" fill="#698137" fill-rule="evenodd"/><path d="M546.291,908.233h0a273.968,273.968,0,0,1-94.566-314.757l48.029,17.609a222.812,222.812,0,0,0,76.91,255.984Z" transform="translate(-434.963 -593.476)" fill="#698137"/></g><g transform="translate(556.118 966.983)"><path d="M489.887,773.059h0a273.965,273.965,0,0,0,318.59,11.671l-27.395-41.419a224.3,224.3,0,0,1-260.842-9.555Z" transform="translate(-489.887 -733.756)" fill="#3d4c19" fill-rule="evenodd"/></g><path d="M495.721,574.28l32.445,66.54-98.987-34.1Z" transform="translate(9.165 83.318)" fill="#698137" fill-rule="evenodd"/><path d="M633.316,796.505l10.2-73.2,63,83.4Z" transform="translate(201.056 223.403)" fill="#698137" fill-rule="evenodd"/><path d="M479.072,734.6l73.018-11.611-61.409,84.627Z" transform="translate(56.065 223.108)" fill="#3d4c19" fill-rule="evenodd"/><path d="M629.731,537.95l-52.3,52.3V485.645Z" transform="translate(148.519)" fill="#7e9645" fill-rule="evenodd"/></g><text transform="translate(960 5012)" fill="#433f34" font-size="30" font-family="ProximaNova-Extrabld, Proxima Nova"><tspan x="-102.975" y="0">Search Engine </tspan><tspan x="-70.47" y="37">Marketing</tspan><tspan x="-54.15" y="74">Process</tspan></text><text transform="translate(1188 4775)" fill="#433f34" font-size="25" font-family="ProximaNova-Regular, Proxima Nova"><tspan x="0" y="0" xml:space="preserve">1.  Keyword Research </tspan><tspan x="0" y="30">and Analysis</tspan><tspan x="0" y="60"/></text><text transform="translate(1288 5139)" fill="#433f34" font-size="25" font-family="ProximaNova-Regular, Proxima Nova"><tspan x="0" y="0" xml:space="preserve">2.  Ads Creation and Landing </tspan><tspan x="0" y="30">Page Development</tspan><tspan x="0" y="60"/></text><text transform="translate(792.5 5408)" fill="#433f34" font-size="25" font-family="ProximaNova-Regular, Proxima Nova"><tspan x="0" y="0" xml:space="preserve">3.  Account Setup and Tracking</tspan><tspan x="0" y="30"/></text><text transform="translate(400 5139)" fill="#433f34" font-size="25" font-family="ProximaNova-Regular, Proxima Nova"><tspan x="0" y="0" xml:space="preserve">4.  Campaign Launch </tspan><tspan x="0" y="30">and Monitoring</tspan><tspan x="0" y="60"/></text><text transform="translate(538 4775)" fill="#433f34" font-size="25" font-family="ProximaNova-Regular, Proxima Nova"><tspan x="0" y="0" xml:space="preserve">5.  Evaluation and </tspan><tspan x="0" y="30">Analysis</tspan><tspan x="0" y="60"/></text></g></svg>