<?xml version="1.0" encoding="UTF-8"?>
<!DOCTYPE svg PUBLIC "-//W3C//DTD SVG 1.0//EN" "http://www.w3.org/TR/2001/REC-SVG-20010904/DTD/svg10.dtd">
<!-- Creator: CorelDRAW X7 -->
<svg xmlns="http://www.w3.org/2000/svg" xml:space="preserve" width="1500px" height="600px" version="1.0" style="shape-rendering:geometricPrecision; text-rendering:geometricPrecision; image-rendering:optimizeQuality; fill-rule:evenodd; clip-rule:evenodd"
viewBox="0 0 1500 600"
 xmlns:xlink="http://www.w3.org/1999/xlink">
 <defs>
  <style type="text/css">
   <![CDATA[
    .fil0 {fill:black;fill-rule:nonzero}
    .fil1 {fill:url(#id0);fill-rule:nonzero}
   ]]>
  </style>
  <linearGradient id="id0" gradientUnits="userSpaceOnUse" x1="59.6752" y1="69.5244" x2="270.782" y2="435.175">
   <stop offset="0" style="stop-opacity:1; stop-color:#29AEFF"/>
   <stop offset="0.0784314" style="stop-opacity:1; stop-color:#29AEFF"/>
   <stop offset="0.478431" style="stop-opacity:1; stop-color:#116BFF"/>
   <stop offset="0.580392" style="stop-opacity:1; stop-color:#116BFF"/>
   <stop offset="1" style="stop-opacity:1; stop-color:#FF006D"/>
   <stop offset="1" style="stop-opacity:1; stop-color:#FF006D"/>
  </linearGradient>
 </defs>
 <g id="Layer_x0020_1">
  <metadata id="CorelCorpID_0Corel-Layer"/>
  <g id="_2013324746848">
   <path class="fil0" d="M526 295c1,-1 2,-2 3,-2 2,0 3,0 4,1 1,1 1,2 0,4 -1,4 -4,9 -6,14 -3,6 -7,12 -11,19 -5,8 -10,14 -14,20 -5,5 -10,10 -15,15 -6,4 -11,7 -16,7 -3,0 -6,0 -9,-1 -3,-1 -5,-3 -7,-6 -2,-3 -4,-6 -5,-9 -2,-3 -3,-8 -4,-13 -1,-6 -2,-11 -3,-16 0,-5 -1,-11 -2,-18 -8,20 -17,35 -25,47 -9,11 -18,18 -27,19 -12,2 -21,-1 -27,-10 -6,-8 -9,-19 -10,-32 -1,-13 0,-26 3,-39 3,-13 8,-26 14,-38 6,-11 13,-20 21,-26 16,-12 32,-10 47,5 0,-53 5,-92 13,-116 11,-31 25,-43 42,-38 10,3 17,10 21,19 4,12 3,30 -1,52 -5,22 -13,44 -23,66 -10,22 -21,40 -32,55 1,13 1,26 2,37 1,12 3,21 4,29 1,8 2,12 4,15 6,9 15,7 26,-7 12,-15 23,-32 33,-53zm-86 -5c0,-3 0,-7 0,-12 0,-5 -1,-11 -1,-19 -1,-7 -1,-11 -1,-11 -1,0 -2,-1 -3,-2 -2,-2 -4,-3 -6,-5 -2,-1 -4,-3 -6,-4 -3,-1 -5,-1 -7,-1 -5,0 -9,2 -13,5 -6,5 -12,12 -17,22 -5,11 -9,21 -12,33 -2,11 -3,22 -3,34 1,11 4,20 8,26 5,7 13,7 22,0 13,-10 26,-32 39,-66zm38 -187c-7,11 -13,31 -16,62 -4,30 -6,62 -5,95 14,-24 27,-53 38,-86 11,-33 14,-56 9,-69 -2,-5 -5,-8 -8,-10 -3,-2 -6,-2 -9,0 -4,1 -7,4 -9,8z"/>
   <path id="1" class="fil0" d="M596 296c0,-2 2,-2 6,-2 3,1 4,2 3,5 -28,49 -48,74 -60,74l-1 0c-3,0 -5,-1 -8,-3 -2,-1 -4,-4 -5,-8 -2,-4 -3,-8 -4,-12 -1,-4 -2,-10 -2,-17 0,-7 -1,-13 -1,-19 0,-6 0,-14 0,-23 0,-22 1,-40 3,-54 1,-3 2,-5 4,-6 2,0 4,0 6,1 2,1 4,2 5,3 2,2 3,3 3,4 0,3 -1,8 -1,15 0,8 -1,13 -1,17 0,3 0,9 0,15 -1,7 -1,12 -1,16 0,4 0,9 0,14 0,5 0,10 1,13 0,4 0,7 1,11 0,4 0,7 1,10 1,3 1,5 2,6 2,5 9,0 19,-14 10,-13 20,-29 30,-46zm-52 -71c0,2 -2,2 -8,0 -4,-2 -6,-3 -6,-5l0 -5c0,-4 2,-6 4,-7 2,0 5,0 7,2 3,2 4,3 4,5l-1 10z"/>
   <path id="2" class="fil0" d="M773 295c2,-1 4,0 6,2 2,2 1,3 -1,4 -14,5 -27,11 -38,19 -1,35 -4,68 -11,99 -7,31 -17,56 -30,76 -13,20 -28,31 -45,32 -9,0 -17,-3 -22,-11 -6,-7 -9,-16 -11,-26 -1,-10 -1,-20 0,-32 2,-10 4,-19 7,-28 3,-9 8,-19 15,-31 7,-11 17,-23 30,-36 13,-12 29,-25 47,-39 0,-15 0,-26 -1,-33 0,-5 -1,-9 -2,-13 -1,-3 -2,-6 -3,-8 -1,-3 -2,-4 -3,-5 -2,-2 -3,-2 -4,-3 -3,0 -6,1 -10,4 -4,3 -8,8 -13,16 -4,7 -8,13 -11,18 -3,5 -7,12 -11,20 -10,18 -18,31 -23,38 -6,8 -12,12 -18,12 -6,1 -11,-1 -16,-6 -5,-4 -9,-11 -11,-19 -3,-9 -4,-18 -3,-29 0,-10 3,-22 7,-34 5,-13 12,-25 20,-37 8,-11 17,-18 28,-23 11,-4 22,-6 33,-5 10,1 21,4 31,9 1,0 2,2 2,3 1,2 1,4 0,5 -1,1 -3,1 -5,0 -5,-2 -10,-3 -15,-3 -4,-1 -9,-1 -13,0 -4,1 -8,3 -12,4 -4,2 -8,4 -11,7 -4,2 -7,5 -9,8 -3,2 -5,5 -8,8 -12,14 -20,31 -24,51 -4,20 -2,35 5,45l0 0c6,6 16,-3 29,-27 1,-2 2,-4 4,-7l2 -5c2,-3 4,-8 8,-14 3,-6 6,-11 7,-14 2,-3 4,-7 7,-12 3,-4 5,-8 7,-10 3,-2 5,-4 8,-7 3,-2 6,-4 9,-4 2,-1 6,-1 9,0 5,1 10,3 14,7 4,4 7,8 9,12 1,4 3,9 4,15 1,6 2,10 2,13 0,3 0,6 1,9 0,1 0,1 0,1 17,-9 28,-14 33,-16zm-114 221c9,-4 18,-16 27,-36 9,-20 17,-44 23,-70 6,-26 9,-51 11,-76 -54,42 -84,84 -90,126 0,8 -1,15 0,21 0,5 1,10 2,15 1,4 3,7 4,10 1,2 2,4 3,4 7,8 14,10 20,6z"/>
   <path id="3" class="fil0" d="M843 296c1,-2 3,-2 7,-2 2,1 3,2 2,5 -28,49 -48,74 -60,74l0 0c-3,0 -6,-1 -8,-3 -3,-1 -5,-4 -6,-8 -1,-4 -3,-8 -4,-12 -1,-4 -1,-10 -2,-17 0,-7 0,-13 -1,-19 0,-6 0,-14 0,-23 0,-22 1,-40 4,-54 0,-3 1,-5 3,-6 2,0 4,0 6,1 2,1 4,2 6,3 1,2 2,3 2,4 0,3 0,8 -1,15 0,8 0,13 0,17 -1,3 -1,9 -1,15 0,7 0,12 0,16 0,4 0,9 0,14 0,5 0,10 0,13 0,4 1,7 1,11 0,4 1,7 1,10 1,3 2,5 3,6 2,5 8,0 18,-14 10,-13 20,-29 30,-46zm-52 -71c0,2 -2,2 -7,0 -4,-2 -6,-3 -6,-5l0 -5c0,-4 1,-6 3,-7 3,0 5,0 8,2 2,2 3,3 3,5l-1 10z"/>
   <path id="4" class="fil0" d="M1179 293c2,0 4,1 5,5 1,3 0,4 -3,4 -17,0 -30,-5 -40,-15 -3,30 -10,53 -19,69 -9,16 -21,24 -35,24 -24,0 -41,-24 -51,-71 -5,31 -13,51 -24,62 -6,6 -12,9 -20,9 -8,0 -15,-3 -21,-9 -6,-7 -11,-15 -15,-26 -4,-11 -7,-22 -9,-33 -3,-12 -5,-24 -6,-36 -1,-13 -2,-24 -2,-31 -1,-8 -1,-15 -1,-22 0,-2 2,-4 5,-4 2,-1 5,-1 8,1 3,1 5,2 5,3 -1,40 5,76 16,109 9,25 18,37 27,36 2,0 3,-1 5,-2 9,-6 16,-23 20,-51 4,-27 4,-57 2,-90 0,0 0,-1 0,-2 0,-1 0,-2 1,-3 0,-2 1,-3 3,-3 1,-1 2,-1 3,-1 3,0 5,0 7,2 3,2 4,3 4,5 0,23 3,50 10,81 10,43 22,65 38,64 5,0 11,-4 17,-10 6,-8 12,-19 16,-35 4,-16 7,-32 7,-47 -4,-10 -6,-18 -8,-24 0,-1 0,-1 0,-2 -3,-16 -1,-26 4,-28 4,-1 8,0 11,5 2,5 4,21 3,47 1,2 3,5 6,7 2,2 5,4 9,6 3,2 7,3 10,4 4,1 8,2 12,2z"/>
   <path id="5" class="fil0" d="M1293 295c1,-1 2,-2 4,-1 2,0 3,1 3,2 1,1 1,2 0,4 -46,49 -80,73 -102,73 -7,0 -12,-1 -17,-4 -5,-3 -9,-7 -12,-13 -3,-6 -4,-14 -3,-25 1,-10 4,-22 10,-36 5,-15 12,-28 20,-40 7,-12 16,-21 26,-27 9,-7 19,-9 28,-7 3,1 6,3 8,7 2,3 3,7 2,12 -1,12 -6,24 -17,35 -10,12 -24,18 -42,20 -1,1 -2,1 -3,0 -1,3 -3,7 -4,10 -5,14 -7,26 -7,38 0,11 3,18 8,20 6,3 15,0 28,-7 12,-7 24,-16 36,-27 12,-11 23,-23 34,-34zm-43 -64c-7,0 -15,6 -25,18 -10,11 -18,24 -24,38 20,-2 36,-12 47,-33 3,-5 5,-10 5,-15 0,-5 -1,-7 -2,-8 -1,0 -1,0 -1,0z"/>
   <path id="6" class="fil0" d="M1447 295c1,0 3,0 4,2 1,1 1,2 1,4 0,1 -1,2 -3,3 -4,0 -11,3 -21,7 -9,5 -19,10 -28,16 -6,15 -14,27 -23,37 -10,10 -18,14 -26,13 -6,0 -11,-3 -14,-9 -1,-1 -1,-3 0,-5 1,-2 3,-5 6,-7 3,-3 6,-5 9,-7 3,-3 8,-5 13,-9 6,-4 11,-7 14,-10 3,-7 7,-15 9,-24 3,-9 5,-17 6,-26 2,-9 2,-15 1,-20 -1,-6 -3,-10 -6,-13 -2,-4 -5,-5 -8,-5l0 0c-8,0 -16,3 -23,10 -7,7 -13,15 -18,25 -5,9 -10,20 -14,33 -4,12 -7,23 -9,32 -3,10 -4,19 -5,27 -1,2 -2,3 -3,5 -2,1 -3,1 -5,1 -5,0 -9,-2 -11,-5 -2,-3 -3,-8 -3,-15 0,-2 -1,-10 -1,-24 0,-15 -1,-30 -1,-45 0,-16 1,-33 1,-52 0,-19 1,-37 3,-55 1,-17 3,-32 6,-43 5,-20 12,-36 23,-47 10,-12 23,-16 37,-14 13,2 21,9 25,23 4,11 4,25 0,43 -4,17 -10,35 -18,53 -8,17 -17,34 -27,49 -10,16 -20,28 -28,38 0,21 0,36 0,45 3,-9 6,-17 9,-24 2,-8 6,-16 11,-25 4,-9 9,-17 14,-23 4,-6 10,-11 17,-16 6,-4 13,-6 20,-6l0 0c8,0 15,3 20,7 6,4 9,10 11,18 1,4 1,8 0,13 0,4 0,10 -1,15 -2,6 -3,12 -4,17 -1,4 -2,9 -3,13 7,-4 15,-9 24,-13 10,-4 16,-6 19,-7zm-107 -202c-10,9 -17,25 -22,50 -4,25 -7,66 -8,124 18,-24 34,-53 49,-89 15,-35 20,-60 15,-76 -1,-6 -4,-10 -7,-13 -2,-2 -5,-4 -9,-4 -3,1 -6,1 -9,3 -3,1 -6,3 -9,5zm11 271c3,-1 7,-4 10,-8 -4,3 -7,6 -10,8z"/>
   <g>
    <path class="fil1" d="M283 76l0 235c0,65 -53,117 -118,117 -65,0 -117,-52 -117,-117 0,-65 52,-117 117,-117 14,0 27,2 39,6l0 67c-10,-9 -24,-15 -39,-15 -32,0 -58,27 -58,59 0,32 26,59 58,59 33,0 59,-27 59,-59l0 -176c0,-32 26,-59 59,-59z"/>
   </g>
  </g>
 </g>
</svg>
