<?xml version="1.0" encoding="UTF-8"?>
<!DOCTYPE svg PUBLIC "-//W3C//DTD SVG 1.0//EN" "http://www.w3.org/TR/2001/REC-SVG-20010904/DTD/svg10.dtd">
<!-- Creator: CorelDRAW X7 -->
<svg xmlns="http://www.w3.org/2000/svg" xml:space="preserve" width="1500px" height="600px" version="1.0" style="shape-rendering:geometricPrecision; text-rendering:geometricPrecision; image-rendering:optimizeQuality; fill-rule:evenodd; clip-rule:evenodd"
viewBox="0 0 1500 600"
 xmlns:xlink="http://www.w3.org/1999/xlink">
 <defs>
  <style type="text/css">
   <![CDATA[
    .fil0 {fill:white;fill-rule:nonzero}
    .fil1 {fill:url(#id0);fill-rule:nonzero}
   ]]>
  </style>
  <linearGradient id="id0" gradientUnits="userSpaceOnUse" x1="46.4504" y1="95.2654" x2="261.601" y2="467.916">
   <stop offset="0" style="stop-opacity:1; stop-color:#29AEFF"/>
   <stop offset="0.0784314" style="stop-opacity:1; stop-color:#29AEFF"/>
   <stop offset="0.478431" style="stop-opacity:1; stop-color:#116BFF"/>
   <stop offset="0.580392" style="stop-opacity:1; stop-color:#116BFF"/>
   <stop offset="1" style="stop-opacity:1; stop-color:#FF006D"/>
   <stop offset="1" style="stop-opacity:1; stop-color:#FF006D"/>
  </linearGradient>
 </defs>
 <g id="Layer_x0020_1">
  <metadata id="CorelCorpID_0Corel-Layer"/>
  <g id="_2526512744384">
   <path class="fil0" d="M522 325c0,-1 1,-2 3,-2 2,0 3,0 4,1 1,1 1,3 0,4 -2,5 -4,9 -7,15 -2,5 -6,11 -11,19 -5,7 -9,14 -14,20 -5,6 -10,11 -15,15 -6,5 -11,7 -16,8 -3,0 -7,-1 -10,-2 -2,-1 -5,-3 -7,-6 -2,-3 -4,-6 -5,-9 -2,-3 -3,-8 -4,-13 -1,-6 -2,-11 -2,-16 -1,-5 -2,-11 -3,-19 -8,20 -17,36 -26,48 -8,12 -17,18 -27,20 -12,2 -21,-2 -28,-11 -6,-8 -9,-19 -10,-32 -1,-14 0,-27 3,-40 3,-14 8,-26 15,-38 6,-12 13,-21 21,-27 17,-12 33,-11 48,4 0,-53 5,-93 13,-118 11,-30 25,-43 43,-38 10,3 17,10 21,20 4,12 4,29 -1,52 -5,23 -13,46 -23,68 -10,22 -21,41 -32,56 0,13 1,26 2,38 1,12 2,21 3,29 2,8 3,13 4,15 6,10 15,8 27,-7 12,-15 23,-33 34,-54zm-88 -5c0,-3 0,-7 0,-12 0,-6 -1,-12 -1,-19 -1,-8 -1,-12 -1,-12 -1,0 -2,-1 -3,-2 -2,-2 -4,-3 -6,-5 -2,-1 -4,-3 -7,-4 -2,-1 -5,-1 -7,-1 -4,0 -8,1 -13,5 -6,5 -12,12 -17,23 -5,10 -9,21 -12,33 -2,11 -3,23 -3,34 1,12 3,21 8,27 5,8 13,8 22,0 14,-10 27,-33 40,-67zm39 -191c-8,11 -13,32 -17,63 -4,32 -5,64 -5,97 15,-24 28,-54 39,-87 11,-33 14,-57 9,-70 -2,-5 -5,-9 -8,-11 -3,-2 -6,-2 -10,0 -3,1 -6,4 -8,8z"/>
   <path id="1" class="fil0" d="M593 326c0,-2 3,-2 6,-2 3,1 4,2 3,5 -29,50 -49,75 -61,76l0 0c-4,0 -6,-1 -9,-3 -2,-2 -4,-5 -6,-9 -1,-4 -2,-8 -3,-12 -1,-4 -2,-10 -2,-17 -1,-7 -1,-13 -1,-20 0,-6 0,-13 0,-23 0,-22 1,-41 3,-55 1,-3 2,-5 4,-6 2,-1 4,0 6,0 2,1 4,3 5,4 2,2 3,3 3,4 0,3 -1,8 -1,16 0,7 -1,13 -1,17 0,3 0,8 0,15 -1,7 -1,12 -1,16 0,4 0,9 0,14 0,6 0,10 1,14 0,3 0,7 1,11 0,4 0,7 1,10 1,3 1,5 2,7 3,4 9,-1 19,-15 11,-14 21,-30 31,-47zm-53 -73c0,3 -2,3 -8,1 -4,-2 -6,-4 -6,-5l0 -6c0,-4 1,-6 4,-6 2,-1 5,0 7,1 3,2 4,4 4,5l-1 10z"/>
   <path id="2" class="fil0" d="M773 325c2,-1 5,0 7,2 1,2 1,3 -2,4 -14,5 -27,11 -39,19 0,36 -3,70 -11,101 -7,32 -17,58 -30,78 -14,20 -29,31 -46,33 -9,0 -17,-4 -22,-11 -6,-8 -10,-17 -11,-27 -2,-10 -2,-21 0,-32 1,-11 4,-20 7,-30 3,-9 8,-19 15,-31 7,-11 17,-23 31,-36 13,-13 29,-27 48,-40 0,-16 -1,-27 -1,-34 -1,-5 -2,-9 -3,-13 -1,-4 -2,-7 -3,-9 -1,-2 -2,-4 -3,-5 -1,-1 -2,-2 -3,-2 -4,-1 -7,0 -11,4 -4,3 -8,8 -13,15 -5,8 -9,14 -11,19 -3,5 -7,12 -12,20 -10,19 -18,32 -23,40 -6,7 -12,11 -18,12 -6,0 -12,-2 -17,-6 -5,-5 -9,-12 -11,-20 -3,-9 -4,-18 -3,-29 0,-11 3,-23 7,-36 5,-13 12,-25 21,-37 8,-11 17,-18 28,-23 12,-4 23,-6 33,-5 11,1 22,4 33,9 0,0 1,1 2,3 0,2 0,4 -1,5 -1,1 -2,1 -5,0 -5,-2 -10,-3 -15,-4 -5,0 -9,0 -13,1 -5,1 -9,2 -13,4 -4,2 -7,4 -11,7 -3,3 -6,5 -9,8 -3,3 -5,5 -8,8 -12,15 -20,32 -24,53 -4,20 -3,35 4,45l0 0c7,7 17,-3 30,-28 1,-1 2,-4 4,-7l2 -4c2,-3 4,-8 8,-15 3,-6 6,-11 8,-14 1,-3 4,-7 7,-12 2,-5 5,-8 7,-11 2,-2 5,-4 8,-6 3,-3 6,-4 9,-5 3,-1 6,-1 9,0 6,1 10,4 14,8 4,4 7,8 9,12 2,4 4,9 5,15 1,6 2,10 2,13 0,3 0,6 0,9 0,1 0,1 0,2 18,-9 29,-15 34,-17zm-116 226c10,-5 19,-17 28,-38 9,-20 17,-44 23,-71 6,-26 10,-52 11,-77 -55,42 -85,85 -91,129 -1,8 -1,14 -1,20 1,6 2,11 3,15 1,5 2,8 4,11 1,2 2,4 3,5 7,7 14,9 20,6z"/>
   <path id="3" class="fil0" d="M845 326c0,-2 3,-2 6,-2 3,1 4,2 3,5 -29,50 -49,75 -61,76l0 0c-4,0 -6,-1 -9,-3 -2,-2 -4,-5 -6,-9 -1,-4 -2,-8 -3,-12 -1,-4 -2,-10 -2,-17 -1,-7 -1,-13 -1,-20 0,-6 0,-13 0,-23 0,-22 1,-41 3,-55 1,-3 2,-5 4,-6 2,-1 4,0 6,0 2,1 4,3 5,4 2,2 3,3 3,4 0,3 -1,8 -1,16 0,7 -1,13 -1,17 0,3 0,8 0,15 0,7 -1,12 -1,16 0,4 0,9 0,14 0,6 1,10 1,14 0,3 0,7 1,11 0,4 1,7 1,10 1,3 1,5 2,7 3,4 9,-1 19,-15 11,-14 21,-30 31,-47zm-53 -73c0,3 -2,3 -8,1 -4,-2 -6,-4 -6,-5l0 -6c0,-4 1,-6 4,-6 2,-1 5,0 7,1 3,2 4,4 4,5l-1 10z"/>
   <path id="4" class="fil0" d="M1187 323c3,0 4,1 5,5 1,3 0,4 -3,4 -17,0 -30,-5 -41,-15 -3,30 -9,54 -19,70 -9,17 -21,25 -36,25 -24,0 -41,-24 -52,-72 -5,31 -13,52 -23,62 -7,7 -14,10 -21,10 -8,0 -16,-3 -22,-10 -6,-6 -11,-15 -15,-26 -4,-11 -7,-22 -10,-34 -2,-11 -4,-24 -5,-37 -2,-13 -2,-23 -3,-31 0,-8 0,-16 0,-22 0,-2 1,-4 4,-5 3,0 6,0 9,1 3,1 5,3 5,4 -1,40 5,77 16,110 9,26 18,38 28,38 1,0 3,-1 5,-2 9,-7 16,-24 20,-52 4,-28 5,-59 2,-92 0,-1 0,-1 0,-2 0,-1 1,-3 1,-4 1,-1 2,-2 3,-3 1,0 2,-1 4,-1 2,0 4,1 7,3 2,1 4,3 4,5 -1,23 3,50 10,82 10,45 23,66 38,65 6,0 11,-3 17,-10 7,-8 13,-20 17,-36 5,-16 7,-32 8,-47 -5,-10 -7,-18 -8,-25 0,0 -1,-1 -1,-2 -3,-17 -1,-26 4,-28 5,-2 8,0 11,4 3,6 4,22 3,48 2,3 4,5 6,8 3,2 6,4 9,6 4,2 8,3 11,4 4,1 8,2 12,2z"/>
   <path id="5" class="fil0" d="M1303 325c1,-1 3,-2 4,-1 2,0 3,1 4,2 0,1 0,2 -1,4 -47,50 -81,75 -104,75 -6,0 -12,-2 -17,-5 -5,-3 -9,-7 -12,-13 -3,-6 -4,-14 -3,-25 1,-11 4,-23 10,-37 6,-15 12,-29 20,-41 8,-11 17,-21 27,-28 9,-7 19,-9 28,-6 3,1 6,3 8,6 3,4 3,8 3,13 -1,13 -6,24 -17,36 -11,11 -25,18 -43,20 -1,1 -2,1 -3,0 -2,3 -3,7 -4,10 -5,14 -8,27 -8,38 0,12 3,19 8,21 6,3 16,1 29,-7 12,-7 25,-17 37,-28 12,-11 24,-22 34,-34zm-44 -66c-6,1 -14,7 -25,19 -10,12 -18,25 -24,39 20,-2 36,-13 48,-33 3,-6 4,-11 5,-16 0,-5 -1,-8 -3,-8 0,0 0,-1 -1,-1z"/>
   <path id="6" class="fil0" d="M1461 325c1,0 2,0 3,2 1,1 2,2 1,4 0,1 -1,2 -3,3 -4,1 -11,3 -21,8 -10,4 -19,9 -28,16 -6,15 -14,28 -24,38 -10,9 -19,14 -26,13 -7,0 -12,-3 -15,-9 -1,-2 -1,-4 0,-6 1,-2 3,-5 6,-7 3,-3 7,-5 10,-7 3,-3 7,-5 13,-9 6,-4 11,-7 14,-10 4,-7 7,-16 9,-25 3,-9 5,-17 7,-26 1,-9 1,-16 0,-21 -1,-6 -3,-10 -5,-13 -3,-3 -6,-5 -9,-5l0 0c-8,0 -16,3 -23,10 -8,7 -14,15 -19,25 -5,10 -10,21 -14,34 -4,12 -7,24 -9,33 -3,10 -5,19 -6,27 0,2 -1,4 -2,5 -2,1 -4,2 -6,2 -5,-1 -9,-3 -11,-6 -2,-3 -3,-8 -3,-15 0,-1 0,-10 -1,-24 0,-15 0,-31 0,-46 0,-16 0,-33 0,-53 1,-19 2,-38 3,-56 2,-18 4,-33 7,-44 4,-20 12,-36 23,-48 10,-12 23,-17 38,-14 13,1 21,9 26,23 3,11 3,26 -1,44 -4,18 -10,36 -18,54 -9,18 -18,34 -28,50 -10,16 -20,29 -29,39 0,21 1,37 1,46 3,-10 6,-18 9,-25 2,-8 6,-16 11,-25 5,-9 9,-17 14,-24 5,-6 11,-11 17,-16 7,-4 14,-6 21,-6l0 0c8,0 15,2 21,7 5,4 9,11 11,18 0,4 0,9 0,13 0,5 -1,10 -2,16 -1,6 -2,12 -3,17 -1,5 -2,9 -3,14 7,-5 15,-10 24,-14 10,-4 16,-6 20,-7zm-109 -206c-11,9 -18,26 -23,51 -4,25 -7,67 -9,126 19,-24 36,-54 51,-90 15,-36 20,-62 15,-78 -2,-6 -4,-10 -7,-13 -3,-2 -6,-4 -9,-3 -3,0 -7,0 -10,2 -3,1 -6,3 -8,5zm11 277c3,-2 6,-5 10,-9 -4,4 -8,6 -10,9z"/>
   <g>
    <path class="fil1" d="M274 102l0 239c0,66 -54,120 -120,120 -66,0 -120,-54 -120,-120 0,-66 54,-119 120,-119 14,0 27,2 40,7l0 68c-11,-10 -25,-15 -40,-15 -33,0 -60,26 -60,59 0,33 27,60 60,60 33,0 60,-27 60,-60l0 -179c0,-33 27,-60 60,-60z"/>
   </g>
  </g>
 </g>
</svg>
